<svg width="29" height="32" viewBox="0 0 29 32" fill="none" xmlns="http://www.w3.org/2000/svg"><path d="M28.6028 0.000814642H20.8151C20.8151 0.000814642 20.7811 7.4117 20.7852 10.9405C20.7927 12.757 20.8143 16.4169 20.8301 18.2334C20.8699 20.5122 19.5839 22.7356 17.5983 23.9108C16.5871 24.5169 15.4348 24.8603 14.2503 24.9086C12.4399 24.9067 10.7042 24.2013 9.42398 22.9473C8.14375 21.6934 7.42353 19.9931 7.42133 18.2196C7.42133 15.0806 6.45763 12.814 5.26132 10.8136C7.15881 7.91629 8.94415 4.56487 8.94415 0H8.36261C8.36261 4.2849 6.71933 7.49227 4.92651 10.2683C4.90076 10.2276 4.87501 10.1869 4.84842 10.1462C6.33053 7.41821 7.74949 4.2727 7.74949 0H7.16794C7.16794 3.98785 5.88024 6.99013 4.48869 9.59281L4.42472 9.49678C5.49143 6.93316 6.55318 3.98866 6.55318 0.000814642H5.97163C5.97163 3.69649 5.03036 6.48799 4.03509 8.91814L3.99521 8.85954C4.65983 6.4538 5.35851 3.71358 5.35851 0.000814642H4.77697C4.77697 3.37258 4.18213 5.9419 3.57733 8.18486C3.60724 7.90978 3.63965 7.62982 3.67205 7.34253C3.90301 5.30791 4.16469 2.99414 4.16469 0.000814642H3.58315C3.58315 2.85498 3.34139 5.08736 3.11874 7.05605C2.98498 5.10282 2.97003 2.89241 2.97003 0.000814642H2.38848C2.38848 2.36097 2.39845 4.27351 2.47156 5.96061C2.04122 4.28572 1.77372 2.39271 1.77372 0.000814642H1.19217C1.17879 1.65539 1.32903 3.30734 1.64078 4.93354C0.929168 3.38322 0.567846 1.7006 0.581544 0.000814642H0C0 3.03321 1.00691 5.2428 2.22732 7.22045C2.36107 7.64935 2.50562 8.06766 2.65682 8.47947C2.70667 8.94174 2.76483 9.39424 2.83379 9.84348C2.7964 10.3204 2.77064 10.7916 2.76067 11.2636C2.64353 11.7658 2.54136 12.263 2.46326 12.7636C2.29046 13.2519 2.13678 13.7353 2.01216 14.2285C1.79541 14.7029 1.60569 15.1887 1.4439 15.6836C-0.187745 18.8153 -0.561594 22.065 3.08552 26.5892C3.85707 27.5606 4.75024 28.4331 5.744 29.1862C8.18509 31.0153 11.1753 32.002 14.2487 31.9923C22.1219 32.2528 28.6934 25.8543 28.6817 18.1659C28.7208 12.1996 28.6028 0.000814642 28.6028 0.000814642ZM14.2495 30.4891C11.3318 30.4891 8.50716 29.3278 6.29646 27.2183C5.35519 26.3231 4.64736 25.5385 4.06997 24.7597C1.7978 21.6955 1.29269 19.3126 1.68066 17.1054C1.75792 19.1718 2.54218 21.2561 4.11234 23.6016C4.56429 24.2762 5.08021 24.9037 5.57951 25.506C5.73403 25.6926 5.88718 25.8792 6.03893 26.0659C8.12833 28.6482 11.1208 30.1286 14.2495 30.1286C17.1153 30.219 19.9156 29.2778 22.1211 27.4828C21.6609 27.8754 21.1713 28.2337 20.6564 28.5546C18.7337 29.7452 16.522 30.4129 14.2487 30.4891H14.2495ZM14.2495 26.7691C11.2587 26.7691 8.56448 24.9119 7.39391 22.1488C8.65669 24.688 11.2853 26.4085 14.2503 26.4085C14.8734 26.4346 17.9772 26.4899 20.2818 23.9987C19.8113 24.5694 19.2503 25.0624 18.6202 25.4588C17.3039 26.2574 15.7991 26.7088 14.252 26.7691H14.2495ZM14.2495 27.3387C16.2541 27.4201 18.3602 26.7039 20.0957 25.5125C19.7944 25.7796 19.47 26.0206 19.1262 26.2327C17.6584 27.1289 15.977 27.6339 14.2487 27.6977C11.0917 27.6977 8.19728 25.7395 6.87884 22.7088C6.66283 22.2107 6.39616 21.7248 6.13779 21.2552C5.97662 20.9606 5.80963 20.6571 5.6576 20.3543C4.27186 17.597 3.64711 15.4859 3.42945 13.5229C3.48179 13.4456 3.53414 13.3666 3.58648 13.2885C4.06168 14.9707 4.72379 16.8116 5.64762 19.1026C5.7174 19.2768 5.78969 19.4501 5.86197 19.6243C6.11078 20.1903 6.32521 20.7702 6.50415 21.361C7.4853 24.8801 10.6705 27.3379 14.2487 27.3379L14.2495 27.3387ZM14.2495 28.6287C11.2462 28.6287 8.35097 26.9351 6.68942 24.2087C6.45763 23.8286 6.20093 23.451 5.95253 23.0872C5.67256 22.6803 5.38426 22.253 5.12838 21.82C3.34471 18.8023 2.82216 16.4853 2.89942 14.3327L2.94926 14.2513C3.23504 16.0865 3.87973 18.1 5.1367 20.5993C5.29372 20.911 5.46236 21.2194 5.62685 21.5181C5.8902 21.9983 6.13862 22.4516 6.34465 22.9253C7.75697 26.1668 10.8574 28.2608 14.2495 28.2608C16.5531 28.3354 18.8097 27.6112 20.6216 26.2156C20.3243 26.5121 19.9941 26.775 19.6371 26.9994C18.0173 27.9938 16.1589 28.5531 14.2487 28.6214L14.2495 28.6287ZM2.33449 15.6145C2.47821 17.4928 3.11875 19.5559 4.62578 22.1057C4.8908 22.5541 5.18488 22.9863 5.46901 23.403C5.72489 23.7782 5.96747 24.1354 6.19095 24.5009C7.95469 27.3982 11.0427 29.1984 14.2495 29.1984C16.8047 29.2802 19.306 28.4664 21.3036 26.9033C20.9457 27.2291 20.5587 27.5227 20.1472 27.7807C18.3757 28.873 16.3406 29.4866 14.2487 29.5589C11.2986 29.5589 8.47227 28.1567 6.49336 25.7119C6.34133 25.5239 6.18597 25.3359 6.03062 25.1479C5.54046 24.5538 5.03368 23.9401 4.59753 23.289C2.52557 20.1956 2.04704 17.8241 2.33449 15.6145ZM6.4053 19.4102C6.33302 19.2385 6.26157 19.066 6.19261 18.8943C5.18903 16.4047 4.49784 14.4523 4.0218 12.6545L4.16885 12.4397L4.24611 12.3249C4.90159 13.8712 5.56207 15.5233 6.16355 17.5946C6.3646 18.2888 6.57062 19.0302 6.6728 19.7919C6.69524 19.9596 6.72514 20.1248 6.75588 20.2876C6.64207 19.9897 6.52077 19.6959 6.4053 19.4102ZM9.09784 23.425C10.4849 24.7306 12.3301 25.4655 14.2536 25.4783C16.3588 25.576 18.4624 24.6856 19.9029 23.1775C19.3887 23.7671 18.7849 24.2755 18.1126 24.6848C16.9477 25.3855 15.6194 25.7827 14.2536 25.8388C11.709 25.8388 9.43514 24.4634 8.18897 22.384C8.45668 22.7582 8.75988 23.1067 9.09453 23.425H9.09784ZM6.83813 17.8444C6.79991 17.7077 6.76171 17.5718 6.72266 17.4375C6.06635 15.1782 5.34356 13.4187 4.63407 11.7544L4.90657 11.3475C5.94255 13.142 6.76502 15.1644 6.8348 17.8444H6.83813ZM4.57759 10.8022L4.36407 11.1228C4.35576 11.1049 4.34829 11.087 4.34081 11.0691L4.53106 10.7273C4.54352 10.7525 4.55848 10.7778 4.57759 10.8022ZM4.17715 10.1706C4.13561 10.2463 4.09407 10.3212 4.05336 10.3953V10.3871C4.08826 10.3057 4.12398 10.2244 4.15887 10.1381L4.17715 10.1706ZM6.10041 28.7264C5.14516 28.0022 4.28661 27.1634 3.54494 26.2295C1.07836 23.1702 0.527555 20.7612 0.987805 18.5378C1.0119 20.4528 1.72886 22.5647 3.60226 25.0917C4.20042 25.8974 4.93151 26.7015 5.89438 27.6236C8.21391 29.8364 11.1823 31.0556 14.2528 31.0556C16.9113 31.1422 19.5301 30.4061 21.7373 28.9518C21.552 29.0812 21.3634 29.2065 21.1707 29.3253C19.0971 30.6165 16.7077 31.3386 14.252 31.4161C11.3055 31.4266 8.43831 30.4821 6.09708 28.7296L6.10041 28.7264Z" fill="#13FF90"></path></svg>
